<svg width="47" height="50" viewBox="0 0 47 50" fill="none" xmlns="http://www.w3.org/2000/svg">
<path d="M27.64 41.6C28.66 41.6 29.51 40.73 29.53 39.7L30.08 16.37C30.1 15.33 29.28 14.45 28.23 14.42C27.17 14.4 26.32 15.22 26.29 16.26L25.74 39.61C25.72 40.65 26.54 41.59 27.59 41.59C27.61 41.6 27.63 41.6 27.64 41.6Z" fill="black"/>
<path d="M30.67 0H15.79C14.75 0 14.05 0.580001 14.05 1.62V6.48H2.16C0.97 6.48 0 7.45 0 8.64C0 9.83 0.97 10.8 2.16 10.8H44.3C45.49 10.8 46.46 9.83 46.46 8.64C46.46 7.45 45.49 6.48 44.3 6.48H32.42V1.62C32.42 0.570001 31.72 0 30.67 0ZM28.63 6.48H17.83V3.78H28.63V6.48Z" fill="black"/>
<path d="M18.73 41.6C18.75 41.6 18.76 41.6 18.78 41.6C19.82 41.6 20.65 40.6 20.63 39.55L20.08 16.19C20.06 15.15 19.2 14.29 18.14 14.32C17.1 14.34 16.27 15.2 16.29 16.24L16.84 39.65C16.87 40.68 17.71 41.6 18.73 41.6Z" fill="black"/>
<path d="M10.0399 15.65C9.97994 14.46 8.96994 13.55 7.76994 13.61C6.57994 13.67 5.65994 14.69 5.72994 15.88L7.37994 47.12C7.43994 48.27 8.38994 49.17 9.53994 49.17H36.9299C38.0799 49.17 39.0299 48.27 39.0899 47.12L40.7399 15.88C40.7999 14.69 39.8899 13.67 38.6999 13.61C37.5199 13.56 36.4899 14.46 36.4299 15.65L34.8899 44.84H11.5799L10.0399 15.65Z" fill="black"/>
</svg>
