<svg width="48" height="49" viewBox="0 0 48 49" fill="none" xmlns="http://www.w3.org/2000/svg">
<path d="M46.9021 29.9422C47.7235 31.1269 47.8431 32.6636 47.2135 33.9611C45.9972 36.4907 44.3702 38.7991 42.4003 40.7961C37.7383 45.4469 31.4129 48.0442 24.8286 48.0171C18.2529 48.0148 11.9458 45.404 7.29323 40.7603C2.63797 36.1141 0.015669 29.8116 7.17496e-05 23.2359C-0.0157236 16.6603 2.57703 10.3468 7.20946 5.6798C9.20649 3.70756 11.5172 2.08059 14.0468 0.864355C15.3444 0.237057 16.881 0.356629 18.0657 1.17801C19.2933 2.04903 19.9635 3.50674 19.8236 5.00512C19.264 11.3145 21.5273 17.547 26.0065 22.024C30.4857 26.5033 36.7183 28.7667 43.0254 28.2092C44.5373 28.04 46.0198 28.7033 46.9021 29.9422ZM34.868 9.7709L36.5288 10.6623H36.5265C36.8921 10.8811 37.1967 11.188 37.4179 11.5514L38.3092 13.2122C38.756 13.8778 39.5052 14.2773 40.3063 14.2773C41.1073 14.2773 41.8565 13.8779 42.3033 13.2122L43.1946 11.5514C43.4135 11.179 43.7294 10.8699 44.1085 10.6623L45.722 9.7709C46.3876 9.3241 46.7871 8.57494 46.7871 7.77388C46.7871 6.97056 46.3877 6.22137 45.722 5.7746L44.086 4.88324V4.8855C43.7024 4.66887 43.3865 4.35295 43.1699 3.96937L42.2808 2.33339C41.834 1.66773 41.0848 1.26827 40.2815 1.26827C39.4804 1.26827 38.7312 1.66768 38.2845 2.33339L37.3931 3.96937C37.1855 4.35072 36.8764 4.66662 36.504 4.8855L34.8432 5.77685V5.7746C34.1775 6.2214 33.7781 6.97056 33.7781 7.77388C33.7781 8.57494 34.1775 9.32413 34.8432 9.7709H34.868ZM47.552 20.3857L46.7329 19.9276C46.5433 19.8283 46.3899 19.6659 46.2996 19.4718L45.7219 18.6526C45.5143 18.2961 45.1352 18.0772 44.7223 18.0772C44.3116 18.0772 43.9302 18.2961 43.7248 18.6526L43.2916 19.4718C43.1833 19.6613 43.0253 19.8216 42.8335 19.9276L42.0144 20.3857C41.6465 20.582 41.4141 20.9656 41.4141 21.3854C41.4141 21.8028 41.6465 22.1864 42.0144 22.3828L42.8335 22.816C43.0185 22.9311 43.1765 23.0891 43.2916 23.2741L43.7248 24.0933C43.937 24.4543 44.3341 24.6664 44.7515 24.6461C45.1713 24.6258 45.5436 24.3753 45.7219 23.9962L46.1799 23.1771C46.277 22.9875 46.4282 22.8296 46.6132 22.7213L47.4323 22.288H47.4301C47.764 22.0962 47.9784 21.7464 47.9987 21.3628C48.0168 20.9792 47.8408 20.6091 47.5271 20.3857L47.552 20.3857ZM24.0591 4.23561L24.7812 4.74108C24.9662 4.8539 25.1242 5.01186 25.2393 5.1969L25.6725 6.01604C25.8688 6.38611 26.2524 6.61631 26.6699 6.61631C27.0896 6.61631 27.4732 6.38614 27.6696 6.01604L28.1277 5.1969C28.2337 5.00735 28.3939 4.84713 28.5835 4.74108L29.4026 4.30782C29.7592 4.10022 29.9781 3.71888 29.9781 3.30815C29.9781 2.89743 29.7592 2.5161 29.4026 2.30849L28.5835 1.85041V1.85266C28.3894 1.7624 28.227 1.60895 28.1277 1.41941L27.6696 0.600263C27.4733 0.230192 27.0897 0 26.6699 0C26.2525 0 25.8689 0.230169 25.6725 0.600263L25.2393 1.41941C25.1309 1.60444 24.9707 1.75337 24.7812 1.85266L24.0591 2.33331C23.7364 2.54091 23.5401 2.8997 23.5401 3.28329C23.5401 3.66916 23.7364 4.0258 24.0591 4.23561Z" fill="black"/>
</svg>
