<svg width="20" height="12" viewBox="0 0 20 12" fill="none" xmlns="http://www.w3.org/2000/svg">
<path d="M10.0059 11.2594C9.80703 11.2592 9.6164 11.1801 9.47588 11.0394L0.525879 2.03937C0.452192 1.97071 0.39309 1.88791 0.352098 1.79591C0.311106 1.70391 0.289064 1.6046 0.287287 1.50389C0.28551 1.40319 0.304035 1.30316 0.341756 1.20977C0.379477 1.11638 0.435622 1.03155 0.50684 0.960332C0.578059 0.889113 0.662893 0.832968 0.756281 0.795247C0.849669 0.757526 0.949698 0.739002 1.0504 0.740778C1.1511 0.742555 1.25042 0.764597 1.34242 0.805589C1.43442 0.846581 1.51722 0.905683 1.58588 0.97937L10.0559 9.43937L18.5759 0.91937C18.722 0.831352 18.8938 0.795778 19.0628 0.818518C19.2319 0.841258 19.3882 0.920954 19.5058 1.04445C19.6235 1.16796 19.6956 1.32788 19.7101 1.49785C19.7247 1.66782 19.6809 1.83766 19.5859 1.97937L10.5359 11.0294C10.4671 11.1008 10.3849 11.158 10.2939 11.1975C10.2029 11.2369 10.105 11.258 10.0059 11.2594Z" fill="black"/>
</svg>
