<svg width="48" height="48" viewBox="0 0 48 48" fill="none" xmlns="http://www.w3.org/2000/svg">
<path d="M42.9905 28.1179C36.6904 28.6767 30.467 26.4145 25.9943 21.9442C21.5239 17.4715 19.2616 11.2481 19.8206 4.94804C19.9603 3.45418 19.2911 1.99631 18.0653 1.12657C16.8823 0.306386 15.3479 0.186984 14.0523 0.81563C7.25674 4.08282 2.31739 10.2657 0.629604 17.6133C-1.05807 24.9632 0.688187 32.6806 5.37491 38.5861C10.0639 44.4916 17.1842 47.9462 24.7233 47.971C29.4033 47.9756 33.9866 46.6552 37.9476 44.1608C41.9065 41.6688 45.0789 38.1065 47.1001 33.8864C47.7265 32.5908 47.6071 31.0564 46.7869 29.8735C45.9262 28.6522 44.4776 27.9828 42.9905 28.1179ZM43.9999 32.3968C42.2199 35.9817 39.48 39.0032 36.0864 41.1259C32.6908 43.2484 28.7746 44.3863 24.7709 44.4133C19.1401 44.4066 13.7391 42.1759 9.74632 38.2056C5.7536 34.2331 3.49123 28.8454 3.45316 23.215C3.42612 17.5482 5.67711 12.1089 9.70133 8.12069C11.398 6.39696 13.3831 4.98195 15.5665 3.93871H15.8076C15.9 3.90942 16.0014 3.90942 16.096 3.93871C16.3461 4.1077 16.4542 4.4209 16.3596 4.70929C15.7197 12.0119 18.3469 19.2245 23.5295 24.409C28.7142 29.5914 35.9267 32.2186 43.2293 31.5789C43.4794 31.5384 43.7295 31.6398 43.8782 31.8426C44.0134 31.9935 44.0585 32.203 43.9999 32.3968ZM34.7707 5.74117L36.4291 4.85113V4.85338C36.8009 4.63482 37.1096 4.31937 37.3169 3.9386L38.2069 2.30503C38.653 1.64036 39.4011 1.24148 40.201 1.24148C41.0031 1.24148 41.7512 1.6403 42.1973 2.30503L43.0874 3.9386H43.0851C43.3014 4.32164 43.6169 4.63708 43.9999 4.85338L45.6335 5.74342V5.74117C46.2981 6.18731 46.697 6.93537 46.697 7.7375C46.697 8.53739 46.2982 9.28547 45.6335 9.73159L43.9999 10.6216C43.6191 10.8289 43.3037 11.1376 43.0851 11.5094L42.1951 13.1678H42.1973C41.7512 13.8325 41.0031 14.2313 40.201 14.2313C39.4011 14.2313 38.653 13.8325 38.2069 13.1678L37.3169 11.5094C37.0983 11.1466 36.7919 10.8402 36.4291 10.6216L34.7707 9.73159C34.106 9.28545 33.7072 8.53739 33.7072 7.7375C33.7072 6.93537 34.106 6.18729 34.7707 5.74117ZM47.4608 22.3249L46.6204 22.7575H46.6182C46.4334 22.8657 46.2847 23.0256 46.1855 23.2149L45.6335 23.9359C45.4375 24.3055 45.0544 24.5353 44.6353 24.5353C44.2185 24.5353 43.8354 24.3055 43.6394 23.9359L43.2293 23.2149C43.1166 23.0301 42.9589 22.8724 42.7741 22.7575L41.9562 22.3249C41.5867 22.1289 41.3568 21.7458 41.3568 21.3289C41.3568 20.9098 41.5866 20.5268 41.9562 20.3307L42.7741 19.8733C42.9634 19.7674 43.1234 19.6075 43.2293 19.4182L43.6619 18.6002C43.8692 18.2442 44.25 18.0257 44.6601 18.0257C45.0702 18.0257 45.451 18.2442 45.6583 18.6002L46.1157 19.4182H46.1134C46.2036 19.612 46.3568 19.7742 46.5461 19.8733L47.3865 20.3307H47.3887C47.7515 20.5245 47.9836 20.8963 47.9994 21.3064C48.0129 21.7187 47.8078 22.1063 47.4608 22.3249ZM24.0025 2.30503L24.8205 1.84762C25.0097 1.75073 25.1675 1.59977 25.2756 1.415L25.7082 0.574569C25.9155 0.218559 26.2963 0 26.7064 0C27.1166 0 27.4973 0.218565 27.7046 0.574569L28.162 1.415H28.1598C28.2612 1.60653 28.4212 1.75749 28.6172 1.84762L29.4351 2.30503C29.7889 2.51233 30.0075 2.89085 30.0075 3.30322C30.0075 3.71331 29.7889 4.09411 29.4351 4.29917L28.5203 4.70925C28.3311 4.81515 28.1711 4.97514 28.0652 5.1644L27.6078 5.98234C27.4118 6.35187 27.0287 6.58172 26.6096 6.58172C26.1927 6.58172 25.8097 6.35189 25.6136 5.98234L25.181 5.1644C25.0661 4.97964 24.9084 4.82191 24.7236 4.70925L24.0026 4.20453C23.6804 3.99498 23.4844 3.63897 23.4844 3.25369C23.4844 2.87065 23.6803 2.51228 24.0025 2.30503Z" fill="white"/>
</svg>
