<svg width="72" height="73" viewBox="0 0 72 73" fill="none" xmlns="http://www.w3.org/2000/svg">
<path d="M3.85364 0.532742C1.74173 0.532742 0 2.27325 0 4.38638V68.6136C0 70.7267 1.74173 72.4672 3.85364 72.4672H42.3901C42.7306 72.467 43.0571 72.3317 43.2979 72.0909L53.5747 61.8148C53.6942 61.6954 53.789 61.5537 53.8537 61.3977C53.9183 61.2417 53.9516 61.0745 53.9516 60.9057V4.38578C53.9516 2.27386 52.2111 0.532135 50.098 0.532135L3.85364 0.532742ZM3.85364 3.10103H50.0986C50.8323 3.10103 51.3821 3.65207 51.3821 4.38578V60.3746L41.8578 69.8989H3.85364C3.11993 69.8989 2.56889 69.3479 2.56889 68.6136V4.38578C2.56889 3.65207 3.11993 3.10103 3.85364 3.10103ZM62.9436 0.532742C60.8305 0.532742 59.09 2.27325 59.09 4.38638V59.6221C59.0903 59.9624 59.2256 60.2887 59.4663 60.5294C59.7069 60.77 60.0332 60.9053 60.3735 60.9057C60.7141 60.9057 61.0406 60.7705 61.2815 60.5298C61.5225 60.2891 61.658 59.9626 61.6583 59.6221V4.38578C61.6583 3.65207 62.2093 3.10103 62.9436 3.10103H68.147C68.8807 3.10103 69.4305 3.65207 69.4305 4.38578V59.6221C69.4308 59.9626 69.5663 60.2891 69.8072 60.5298C70.0481 60.7705 70.3747 60.9057 70.7152 60.9057C71.0558 60.9057 71.3824 60.7705 71.6233 60.5298C71.8642 60.2891 71.9997 59.9626 72 59.6221V4.38578C72 2.27386 70.2595 0.532135 68.1464 0.532135L62.9436 0.532742Z" fill="black"/>
<path d="M60.3741 60.9062C60.149 60.9062 59.9279 60.9652 59.7328 61.0775C59.5378 61.1897 59.3756 61.3512 59.2626 61.5459C59.1496 61.7405 59.0897 61.9614 59.0889 62.1864C59.0881 62.4115 59.1464 62.6328 59.258 62.8282L64.3964 71.8202C64.5085 72.0165 64.6705 72.1798 64.8659 72.2935C65.0612 72.4072 65.2832 72.4673 65.5092 72.4678C65.7353 72.4683 65.9575 72.4091 66.1534 72.2963C66.3493 72.1834 66.5119 72.0209 66.6249 71.8251L71.8167 62.8331C71.9295 62.6377 71.9889 62.4161 71.989 62.1905C71.989 61.9649 71.9296 61.7433 71.8168 61.5479C71.704 61.3526 71.5417 61.1903 71.3463 61.0776C71.1509 60.9649 70.9292 60.9055 70.7037 60.9056L60.3741 60.9062ZM62.5879 63.4757H68.4789L65.5173 68.6038L62.5879 63.4757Z" fill="black"/>
<path d="M60.3741 8.23944C60.0335 8.2396 59.7069 8.37503 59.466 8.61595C59.2252 8.85687 59.09 9.18356 59.09 9.52419V62.1904C59.0898 62.5311 59.2249 62.8578 59.4656 63.0988C59.7063 63.3399 60.0329 63.4755 60.3735 63.4758H65.5119C65.6807 63.4758 65.8478 63.4425 66.0037 63.3779C66.1596 63.3133 66.3013 63.2186 66.4206 63.0993C66.5399 62.9799 66.6345 62.8382 66.699 62.6823C66.7635 62.5263 66.7967 62.3592 66.7966 62.1904V9.52419C66.7966 9.18345 66.6613 8.85667 66.4204 8.61573C66.1794 8.3748 65.8526 8.23944 65.5119 8.23944H60.3741ZM61.6583 10.8089H64.2284V60.9063H61.6583V10.8089Z" fill="black"/>
<path d="M65.512 8.23944C65.1715 8.23976 64.845 8.37526 64.6043 8.61616C64.3636 8.85707 64.2285 9.18366 64.2285 9.52419V62.1904C64.2283 62.5311 64.3634 62.8578 64.6041 63.0988C64.8448 63.3399 65.1714 63.4755 65.512 63.4758H70.6504C70.8191 63.4758 70.9863 63.4425 71.1422 63.3779C71.2981 63.3133 71.4397 63.2186 71.5591 63.0993C71.6784 62.9799 71.773 62.8382 71.8375 62.6823C71.902 62.5263 71.9352 62.3592 71.9351 62.1904V9.52419C71.9351 9.18345 71.7998 8.85667 71.5588 8.61573C71.3179 8.3748 70.9911 8.23944 70.6504 8.23944H65.512ZM66.7967 10.8089H69.3668V60.9063H66.7967V10.8089ZM42.3901 59.6221C42.0496 59.6221 41.723 59.7573 41.4821 59.998C41.2412 60.2387 41.1057 60.5652 41.1054 60.9057V71.1825C41.1053 71.4366 41.1805 71.6851 41.3216 71.8965C41.4628 72.1079 41.6634 72.2727 41.8982 72.37C42.133 72.4673 42.3914 72.4928 42.6406 72.4432C42.8899 72.3937 43.1189 72.2713 43.2986 72.0916L53.5748 61.8148C53.7542 61.6351 53.8764 61.4063 53.9259 61.1572C53.9754 60.9082 53.9499 60.65 53.8528 60.4154C53.7556 60.1808 53.5912 59.9802 53.3801 59.839C53.169 59.6978 52.9209 59.6224 52.6669 59.6221H42.3901ZM43.6755 62.1904H49.5664L43.6755 68.0813V62.1904ZM15.4152 10.8089C12.5933 10.8089 10.2769 13.1248 10.2769 15.9473C10.2769 18.7699 12.5927 21.0857 15.4152 21.0857C18.2378 21.0857 20.5536 18.7699 20.5536 15.9473C20.5536 13.1254 18.2378 10.8089 15.4152 10.8089ZM15.4152 13.3778C15.7533 13.3753 16.0886 13.4401 16.4014 13.5683C16.7143 13.6966 16.9985 13.8858 17.2375 14.1249C17.4766 14.364 17.6657 14.6482 17.7939 14.9611C17.922 15.274 17.9867 15.6092 17.9841 15.9473C17.9868 16.2854 17.9222 16.6207 17.794 16.9336C17.6659 17.2464 17.4768 17.5307 17.2377 17.7698C16.9986 18.0088 16.7143 18.198 16.4015 18.3261C16.0886 18.4543 15.7533 18.5189 15.4152 18.5162C15.0771 18.5188 14.7419 18.4541 14.429 18.326C14.1162 18.1978 13.8319 18.0087 13.5928 17.7696C13.3537 17.5306 13.1645 17.2463 13.0363 16.9335C12.908 16.6207 12.8432 16.2854 12.8457 15.9473C12.8432 15.6092 12.908 15.274 13.0362 14.9611C13.1645 14.6482 13.3537 14.3639 13.5928 14.1248C13.8319 13.8857 14.1161 13.6966 14.429 13.5683C14.7419 13.4401 15.0771 13.3753 15.4152 13.3778ZM26.9756 10.8089C26.6349 10.8093 26.3084 10.9448 26.0677 11.1859C25.827 11.4269 25.6919 11.7537 25.692 12.0943C25.6924 12.4346 25.8277 12.7609 26.0683 13.0015C26.309 13.2422 26.6353 13.3775 26.9756 13.3778H42.3901C42.7308 13.378 43.0575 13.2429 43.2986 13.0022C43.5396 12.7615 43.6752 12.4349 43.6755 12.0943C43.6756 11.9255 43.6424 11.7583 43.5778 11.6023C43.5132 11.4463 43.4186 11.3046 43.2992 11.1852C43.1798 11.0659 43.0381 10.9712 42.8821 10.9066C42.7261 10.8421 42.559 10.8089 42.3901 10.8089H26.9756ZM26.9756 15.9473C26.6353 15.9477 26.309 16.083 26.0683 16.3236C25.8277 16.5643 25.6924 16.8906 25.692 17.2309C25.6919 17.5715 25.827 17.8983 26.0677 18.1393C26.3084 18.3803 26.6349 18.5159 26.9756 18.5162H34.6835C35.0241 18.5159 35.3507 18.3803 35.5913 18.1393C35.832 17.8983 35.9672 17.5715 35.967 17.2309C35.9667 16.8906 35.8313 16.5643 35.5907 16.3236C35.3501 16.083 35.0238 15.9477 34.6835 15.9473H26.9756ZM15.4152 28.7924C12.5933 28.7924 10.2769 31.1082 10.2769 33.9308C10.2769 36.7528 12.5927 39.0692 15.4152 39.0692C18.2378 39.0692 20.5536 36.7534 20.5536 33.9308C20.5536 31.1088 18.2378 28.7924 15.4152 28.7924ZM15.4152 31.3625C15.7533 31.3598 16.0885 31.4244 16.4013 31.5526C16.7142 31.6807 16.9984 31.8697 17.2375 32.1088C17.4765 32.3478 17.6657 32.632 17.7939 32.9448C17.922 33.2576 17.9867 33.5927 17.9841 33.9308C17.9867 34.2688 17.922 34.604 17.7939 34.9168C17.6657 35.2296 17.4765 35.5138 17.2375 35.7528C16.9984 35.9918 16.7142 36.1809 16.4013 36.309C16.0885 36.4371 15.7533 36.5017 15.4152 36.4991C15.0772 36.5017 14.742 36.437 14.4292 36.3089C14.1163 36.1807 13.8321 35.9917 13.593 35.7527C13.3539 35.5137 13.1647 35.2295 13.0364 34.9168C12.9081 34.604 12.8433 34.2688 12.8457 33.9308C12.8433 33.5927 12.9081 33.2576 13.0364 32.9448C13.1647 32.632 13.3539 32.3479 13.593 32.1089C13.8321 31.8699 14.1163 31.6809 14.4292 31.5527C14.742 31.4246 15.0772 31.3599 15.4152 31.3625ZM26.9756 28.7924C26.635 28.7927 26.3086 28.9282 26.0679 29.1691C25.8272 29.41 25.692 29.7366 25.692 30.0772C25.6919 30.4178 25.827 30.7445 26.0677 30.9856C26.3084 31.2266 26.6349 31.3622 26.9756 31.3625H42.3901C42.559 31.3626 42.7261 31.3294 42.8821 31.2648C43.0381 31.2003 43.1798 31.1056 43.2992 30.9862C43.4186 30.8668 43.5132 30.7251 43.5778 30.5691C43.6424 30.4131 43.6756 30.246 43.6755 30.0772C43.6755 29.9084 43.6422 29.7413 43.5776 29.5854C43.513 29.4294 43.4183 29.2878 43.299 29.1685C43.1796 29.0492 43.0379 28.9546 42.882 28.89C42.726 28.8255 42.5589 28.7923 42.3901 28.7924H26.9756ZM26.9756 33.9308C26.635 33.9311 26.3086 34.0666 26.0679 34.3075C25.8272 34.5484 25.692 34.875 25.692 35.2155C25.6924 35.5559 25.8277 35.8821 26.0683 36.1228C26.309 36.3634 26.6353 36.4988 26.9756 36.4991H34.6835C35.0238 36.4988 35.3501 36.3634 35.5907 36.1228C35.8313 35.8821 35.9667 35.5559 35.967 35.2155C35.967 34.875 35.8318 34.5484 35.5911 34.3075C35.3505 34.0666 35.024 33.9311 34.6835 33.9308H26.9756ZM15.4152 46.7759C12.5933 46.7759 10.2769 49.0917 10.2769 51.9143C10.2769 54.7362 12.5927 57.0526 15.4152 57.0526C18.2378 57.0526 20.5536 54.7368 20.5536 51.9143C20.5536 49.0917 18.2378 46.7759 15.4152 46.7759ZM15.4152 49.3454C15.7533 49.3427 16.0886 49.4073 16.4015 49.5355C16.7143 49.6636 16.9986 49.8528 17.2377 50.0918C17.4768 50.3309 17.6659 50.6152 17.794 50.928C17.9222 51.2409 17.9868 51.5762 17.9841 51.9143C17.9867 52.2524 17.922 52.5876 17.7939 52.9005C17.6657 53.2133 17.4766 53.4976 17.2375 53.7367C16.9985 53.9758 16.7143 54.165 16.4014 54.2933C16.0886 54.4215 15.7533 54.4863 15.4152 54.4838C15.0771 54.4863 14.7419 54.4215 14.429 54.2933C14.1161 54.165 13.8319 53.9758 13.5928 53.7367C13.3537 53.4976 13.1645 53.2134 13.0362 52.9005C12.908 52.5876 12.8432 52.2524 12.8457 51.9143C12.8432 51.5762 12.908 51.2409 13.0363 50.9281C13.1645 50.6152 13.3537 50.331 13.5928 50.092C13.8319 49.8529 14.1162 49.6638 14.429 49.5356C14.7419 49.4075 15.0771 49.3428 15.4152 49.3454ZM26.9756 46.7759C26.635 46.7762 26.3086 46.9117 26.0679 47.1526C25.8272 47.3935 25.692 47.7201 25.692 48.0606C25.692 48.4011 25.8272 48.7277 26.0679 48.9686C26.3086 49.2095 26.635 49.345 26.9756 49.3454H42.3901C42.5589 49.3454 42.726 49.3123 42.882 49.2477C43.0379 49.1832 43.1796 49.0886 43.299 48.9693C43.4183 48.85 43.513 48.7083 43.5776 48.5524C43.6422 48.3965 43.6755 48.2294 43.6755 48.0606C43.6755 47.8918 43.6422 47.7247 43.5776 47.5688C43.513 47.4129 43.4183 47.2712 43.299 47.1519C43.1796 47.0326 43.0379 46.938 42.882 46.8735C42.726 46.809 42.5589 46.7758 42.3901 46.7759H26.9756ZM26.9756 51.9143C26.635 51.9146 26.3086 52.0501 26.0679 52.291C25.8272 52.5319 25.692 52.8585 25.692 53.199C25.692 53.5395 25.8272 53.8661 26.0679 54.107C26.3086 54.3479 26.635 54.4834 26.9756 54.4838H34.6835C35.024 54.4834 35.3505 54.3479 35.5911 54.107C35.8318 53.8661 35.967 53.5395 35.967 53.199C35.967 52.8585 35.8318 52.5319 35.5911 52.291C35.3505 52.0501 35.024 51.9146 34.6835 51.9143H26.9756Z" fill="black"/>
</svg>
