<svg xmlns="http://www.w3.org/2000/svg" viewBox="0 0 26.458 33.0725" x="0px" y="0px"><g style="" fill="#000" stroke-width="6"><path d="M14.816 8.467c-3.48 0-6.35 2.868-6.35 6.35V120.65c0 3.482 2.87 6.35 6.35 6.35h63.5a2.117 2.117 0 0 0 1.496-.62l16.934-16.933a2.117 2.117 0 0 0 .621-1.498V14.816c0-3.48-2.868-6.35-6.35-6.35zm0 4.232h76.202c1.209 0 2.115.908 2.115 2.117v92.258l-15.694 15.694H14.816c-1.209 0-2.117-.908-2.117-2.118V14.816c0-1.209.908-2.117 2.117-2.117zm97.368-4.232c-3.482 0-6.35 2.868-6.35 6.35v91.017a2.117 2.117 0 0 0 2.115 2.115 2.117 2.117 0 0 0 2.117-2.115V14.816c0-1.209.908-2.117 2.118-2.117h8.574c1.209 0 2.115.908 2.115 2.117v91.018a2.117 2.117 0 0 0 2.117 2.115 2.117 2.117 0 0 0 2.117-2.115V14.816c0-3.48-2.868-6.35-6.35-6.35z" style="color:#000;" transform="translate(1.931 1.803) scale(.16667)" fill="#000" stroke-width="6" stroke-linecap="round" stroke-linejoin="round"/><path d="M107.95 107.95a2.117 2.117 0 0 0-1.839 3.167l8.467 14.817a2.117 2.117 0 0 0 3.672.008l8.555-14.817a2.117 2.117 0 0 0-1.834-3.176zm3.648 4.234h9.707l-4.88 8.45z" style="color:#000;" transform="translate(1.931 1.803) scale(.16667)" fill="#000" stroke-width="6" stroke-linecap="round" stroke-linejoin="round"/><path d="M107.95 21.166a2.117 2.117 0 0 0-2.116 2.117v86.783a2.117 2.117 0 0 0 2.115 2.118h8.467a2.117 2.117 0 0 0 2.117-2.118V23.283a2.117 2.117 0 0 0-2.117-2.117zm2.116 4.234h4.235v82.55h-4.235z" style="color:#000;" transform="translate(1.931 1.803) scale(.16667)" fill="#000" stroke-width="6" stroke-linecap="round" stroke-linejoin="round"/><path d="M116.416 21.166a2.117 2.117 0 0 0-2.115 2.117v86.783a2.117 2.117 0 0 0 2.115 2.118h8.467a2.117 2.117 0 0 0 2.117-2.118V23.283a2.117 2.117 0 0 0-2.117-2.117zm2.117 4.234h4.235v82.55h-4.235zm-40.217 80.434a2.117 2.117 0 0 0-2.117 2.115v16.934a2.117 2.117 0 0 0 3.614 1.498l16.933-16.934a2.117 2.117 0 0 0-1.496-3.613Zm2.118 4.232h9.707l-9.707 9.707zM33.867 25.4c-4.65 0-8.467 3.816-8.467 8.467 0 4.651 3.816 8.467 8.467 8.467 4.651 0 8.467-3.816 8.467-8.467 0-4.65-3.816-8.467-8.467-8.467zm0 4.233a4.202 4.202 0 0 1 4.233 4.234 4.2 4.2 0 0 1-4.233 4.233 4.202 4.202 0 0 1-4.234-4.233 4.203 4.203 0 0 1 4.234-4.234zM52.916 25.4a2.117 2.117 0 0 0-2.115 2.118 2.117 2.117 0 0 0 2.115 2.115h25.4a2.117 2.117 0 0 0 2.118-2.115 2.117 2.117 0 0 0-2.118-2.118zm0 8.467a2.117 2.117 0 0 0-2.115 2.115 2.117 2.117 0 0 0 2.115 2.118h12.701a2.117 2.117 0 0 0 2.115-2.118 2.117 2.117 0 0 0-2.115-2.115zM33.867 55.033c-4.65 0-8.467 3.816-8.467 8.467 0 4.65 3.816 8.467 8.467 8.467 4.651 0 8.467-3.816 8.467-8.467 0-4.65-3.816-8.467-8.467-8.467zm0 4.235A4.2 4.2 0 0 1 38.1 63.5a4.2 4.2 0 0 1-4.233 4.232 4.202 4.202 0 0 1-4.234-4.232 4.202 4.202 0 0 1 4.234-4.232zm19.049-4.235a2.117 2.117 0 0 0-2.115 2.117 2.117 2.117 0 0 0 2.115 2.118h25.4a2.117 2.117 0 0 0 2.118-2.118 2.117 2.117 0 0 0-2.118-2.117zm0 8.467a2.117 2.117 0 0 0-2.115 2.117 2.117 2.117 0 0 0 2.115 2.115h12.701a2.117 2.117 0 0 0 2.115-2.115 2.117 2.117 0 0 0-2.115-2.117ZM33.867 84.666c-4.65 0-8.467 3.816-8.467 8.467 0 4.65 3.816 8.467 8.467 8.467 4.651 0 8.467-3.816 8.467-8.467 0-4.651-3.816-8.467-8.467-8.467zm0 4.234a4.2 4.2 0 0 1 4.233 4.233 4.202 4.202 0 0 1-4.233 4.234 4.203 4.203 0 0 1-4.234-4.234 4.202 4.202 0 0 1 4.234-4.233zm19.049-4.234a2.117 2.117 0 0 0-2.115 2.117 2.117 2.117 0 0 0 2.115 2.117h25.4a2.117 2.117 0 0 0 2.118-2.117 2.117 2.117 0 0 0-2.118-2.117zm0 8.467a2.117 2.117 0 0 0-2.115 2.117 2.117 2.117 0 0 0 2.115 2.117h12.701a2.117 2.117 0 0 0 2.115-2.117 2.117 2.117 0 0 0-2.115-2.117Z" style="color:#000;" transform="translate(1.931 1.803) scale(.16667)" fill="#000" stroke-width="6" stroke-linecap="round" stroke-linejoin="round"/></g><text x="0" y="41.458" fill="#000000" font-size="5px" font-weight="bold" font-family="'Helvetica Neue', Helvetica, Arial-Unicode, Arial, Sans-serif">Created by Adityas Fathunurrahman</text><text x="0" y="46.458" fill="#000000" font-size="5px" font-weight="bold" font-family="'Helvetica Neue', Helvetica, Arial-Unicode, Arial, Sans-serif">from the Noun Project</text></svg>